<?xml version="1.0" encoding="UTF-8"?>
<svg xmlns="http://www.w3.org/2000/svg" xmlns:xlink="http://www.w3.org/1999/xlink" width="319.4pt" height="178.6pt" viewBox="0 0 319.4 178.6" version="1.1">
<defs>
<clipPath id="clip1">
  <path d="M 0 2 L 319.398438 2 L 319.398438 178.601563 L 0 178.601563 Z M 0 2 "/>
</clipPath>
<clipPath id="clip2">
  <path d="M 0 0 L 319.398438 0 L 319.398438 178.601563 L 0 178.601563 Z M 0 0 "/>
</clipPath>
</defs>
<g id="surface1">
<path style="fill-rule:evenodd;fill:rgb(56.443787%,0%,0%);fill-opacity:1;stroke-width:5.669;stroke-linecap:butt;stroke-linejoin:miter;stroke:rgb(56.443787%,0%,0%);stroke-opacity:1;stroke-miterlimit:4;" d="M 1120.46875 1452.601563 C 1560.703125 1598.695313 1988.242188 1704.59375 2454.882813 1663.8125 C 2626.757813 1471.195313 2671.367188 1288.8125 2646.875 1111.78125 C 2643.828125 971.390625 2576.757813 846.195313 2481.289063 727.796875 C 2370.039063 586.390625 2214.53125 508.8125 2034.882813 466.195313 C 1791.523438 416.898438 1589.0625 469.515625 1408.476563 576.585938 C 1183.164063 721.585938 1091.796875 919.085938 1067.65625 1142.992188 C 1064.101563 1243.695313 1079.140625 1347.289063 1120.46875 1452.601563 Z M 1120.46875 1452.601563 " transform="matrix(0.1,0,0,-0.1,0,178.6)"/>
<path style=" stroke:none;fill-rule:evenodd;fill:rgb(0.392151%,0.784302%,1.177979%);fill-opacity:1;" d="M 227.382813 92.480469 C 216.96875 104.199219 203.328125 108.890625 187.597656 109.03125 C 156.964844 110.460938 132.632813 87.28125 134.964844 55.910156 C 141.035156 18.878906 179.453125 6.078125 213.050781 20.570313 C 228.53125 29.601563 235.300781 39.378906 238.011719 48.488281 C 240.390625 55.671875 240.203125 62.941406 239.246094 70.238281 C 237.328125 77.839844 233.300781 85.25 227.382813 92.480469 Z M 226.234375 91.601563 C 216.117188 102.980469 202.871094 107.539063 187.59375 107.679688 C 157.839844 109.058594 134.949219 86.730469 136.472656 56.078125 C 144.609375 19.78125 179.679688 7.691406 212.3125 21.761719 C 227.347656 30.53125 233.921875 40.03125 236.554688 48.878906 C 238.863281 55.851563 238.6875 62.910156 237.753906 70 C 235.890625 77.378906 231.980469 84.582031 226.234375 91.601563 Z M 226.234375 91.601563 "/>
<path style="fill-rule:evenodd;fill:rgb(0%,0%,0%);fill-opacity:1;stroke-width:5.669;stroke-linecap:butt;stroke-linejoin:miter;stroke:rgb(0%,0%,0%);stroke-opacity:1;stroke-miterlimit:4;" d="M 1264.375 1019.90625 C 1288.984375 989.007813 1319.765625 975.414063 1360.976563 990.609375 C 1417.734375 1029.007813 1460.351563 1037.796875 1520.46875 1004.789063 C 1641.015625 898.695313 1519.960938 727.796875 1374.53125 809.007813 C 1298.515625 856.3125 1266.5625 932.210938 1264.375 1019.90625 Z M 1264.375 1019.90625 " transform="matrix(0.1,0,0,-0.1,0,178.6)"/>
<path style="fill-rule:evenodd;fill:rgb(0%,0%,0%);fill-opacity:1;stroke-width:5.669;stroke-linecap:butt;stroke-linejoin:miter;stroke:rgb(0%,0%,0%);stroke-opacity:1;stroke-miterlimit:4;" d="M 2261.367188 754.398438 C 2285.3125 785.804688 2291.015625 819.007813 2266.171875 855.179688 C 2215.039063 900.882813 2196.09375 939.984375 2213.359375 1006.390625 C 2286.835938 1149.203125 2482.148438 1073.617188 2438.945313 912.796875 C 2411.640625 827.484375 2345.859375 777.914063 2261.367188 754.398438 Z M 2261.367188 754.398438 " transform="matrix(0.1,0,0,-0.1,0,178.6)"/>
<path style="fill-rule:evenodd;fill:rgb(0%,0%,0%);fill-opacity:1;stroke-width:5.669;stroke-linecap:butt;stroke-linejoin:miter;stroke:rgb(0%,0%,0%);stroke-opacity:1;stroke-miterlimit:4;" d="M 1858.789063 1404.203125 C 1987.34375 1404.203125 2091.601563 1301 2091.601563 1173.8125 C 2091.601563 1046.507813 1987.34375 943.382813 1858.789063 943.382813 C 1730.195313 943.382813 1625.976563 1046.507813 1625.976563 1173.8125 C 1625.976563 1301 1730.195313 1404.203125 1858.789063 1404.203125 Z M 1858.789063 1404.203125 " transform="matrix(0.1,0,0,-0.1,0,178.6)"/>
<g clip-path="url(#clip1)" clip-rule="nonzero">
<path style=" stroke:none;fill-rule:evenodd;fill:rgb(0.784302%,1.177979%,1.567078%);fill-opacity:1;" d="M 0.289063 123.28125 C 2.292969 109.289063 7.230469 89.941406 3.414063 86.558594 C 35.3125 65 66.957031 43.039063 103.253906 28.488281 C 136.753906 16.351563 171.914063 9.019531 208.132813 4.71875 C 246.257813 2.171875 284.285156 -0.0390625 319.015625 9.53125 C 308.507813 34.359375 295.285156 58.140625 281.09375 81.53125 C 269.699219 99.558594 255.769531 115.410156 239.816406 129.53125 C 225.621094 141.738281 209.203125 151 192.054688 159.28125 C 157.882813 174.070313 143.359375 175.71875 129.65625 178.238281 C 170.222656 167.140625 209.675781 153.261719 242.214844 122.082031 C 262.734375 101.082031 274.976563 82.621094 282.289063 65.691406 C 289.691406 52.589844 296.023438 38.308594 301.253906 22.71875 C 284.238281 17.558594 267.074219 15.398438 249.894531 13.601563 C 303.914063 75.878906 231.023438 167.121094 144.535156 127.371094 C 116.648438 112.191406 103.144531 88.660156 103.734375 57.28125 C 104.132813 49.578125 105.414063 42.191406 108.535156 35.441406 C 89.042969 41.960938 71.304688 51.339844 54.535156 62.328125 C 41.765625 71.308594 31.539063 81.5 22.132813 92.082031 C 13.589844 101.46875 6.441406 111.980469 0.289063 123.28125 Z M 172.738281 17.351563 C 170.878906 26.851563 181.550781 30.46875 188.214844 28.238281 C 193.359375 25.921875 196.15625 22.25 196.816406 17.371094 C 196.371094 16.910156 201.289063 11.351563 206.695313 14.078125 C 206.453125 13.691406 206.214844 13.28125 205.972656 12.890625 C 218.738281 12.078125 231.609375 11.699219 244.855469 12.890625 C 269.703125 38.378906 270.960938 75.851563 249.894531 104.082031 C 222.148438 136.890625 177.414063 143.75 140.695313 121.128906 C 123.925781 110.640625 112.902344 95.378906 108.289063 74.808594 C 105.257813 61.128906 106.449219 47.601563 111.894531 34.238281 C 131.929688 27.390625 152.21875 21.800781 172.738281 17.351563 Z M 172.738281 17.351563 "/>
</g>
<g clip-path="url(#clip2)" clip-rule="nonzero">
<path style="fill:none;stroke-width:5.669;stroke-linecap:butt;stroke-linejoin:miter;stroke:rgb(0.784302%,1.177979%,1.567078%);stroke-opacity:1;stroke-miterlimit:4;" d="M 2.890625 553.1875 C 22.929688 693.109375 72.304688 886.585938 34.140625 920.414063 C 353.125 1136 669.570313 1355.609375 1032.539063 1501.117188 C 1367.539063 1622.484375 1719.140625 1695.804688 2081.328125 1738.8125 C 2462.578125 1764.28125 2842.851563 1786.390625 3190.15625 1690.6875 C 3085.078125 1442.40625 2952.851563 1204.59375 2810.9375 970.6875 C 2696.992188 790.414063 2557.695313 631.898438 2398.164063 490.6875 C 2256.210938 368.617188 2092.03125 276 1920.546875 193.1875 C 1578.828125 45.296875 1433.59375 28.8125 1296.5625 3.617188 C 1702.226563 114.59375 2096.757813 253.382813 2422.148438 565.179688 C 2627.34375 775.179688 2749.765625 959.789063 2822.890625 1129.085938 C 2896.914063 1260.101563 2960.234375 1402.914063 3012.539063 1558.8125 C 2842.382813 1610.414063 2670.742188 1632.015625 2498.945313 1649.984375 C 3039.140625 1027.210938 2310.234375 114.789063 1445.351563 512.289063 C 1166.484375 664.085938 1031.445313 899.398438 1037.34375 1213.1875 C 1041.328125 1290.21875 1054.140625 1364.085938 1085.351563 1431.585938 C 890.429688 1366.390625 713.046875 1272.601563 545.351563 1162.71875 C 417.65625 1072.914063 315.390625 971 221.328125 865.179688 C 135.898438 771.3125 64.414063 666.195313 2.890625 553.1875 Z M 1727.382813 1612.484375 C 1708.789063 1517.484375 1815.507813 1481.3125 1882.148438 1503.617188 C 1933.59375 1526.78125 1961.5625 1563.5 1968.164063 1612.289063 C 1963.710938 1616.898438 2012.890625 1672.484375 2066.953125 1645.21875 C 2064.53125 1649.085938 2062.148438 1653.1875 2059.726563 1657.09375 C 2187.382813 1665.21875 2316.09375 1669.007813 2448.554688 1657.09375 C 2697.03125 1402.210938 2709.609375 1027.484375 2498.945313 745.179688 C 2221.484375 417.09375 1774.140625 348.5 1406.953125 574.710938 C 1239.257813 679.59375 1129.023438 832.210938 1082.890625 1037.914063 C 1052.578125 1174.710938 1064.492188 1309.984375 1118.945313 1443.617188 C 1319.296875 1512.09375 1522.1875 1567.992188 1727.382813 1612.484375 Z M 1727.382813 1612.484375 " transform="matrix(0.1,0,0,-0.1,0,178.6)"/>
</g>
</g>
</svg>
